<?xml version="1.0" encoding="UTF-8"?>
<svg width="28px" height="28px" viewBox="0 0 28 28" version="1.1" xmlns="http://www.w3.org/2000/svg" xmlns:xlink="http://www.w3.org/1999/xlink">
    <!-- Generator: Sketch 51.2 (57519) - http://www.bohemiancoding.com/sketch -->
    <title>Clear@2x</title>
    <desc>Created with Sketch.</desc>
    <defs></defs>
    <g id="Artboards" stroke="none" stroke-width="1" fill="none" fill-rule="evenodd" opacity="0.5">
        <g id="ReNest-Copy-15" transform="translate(-567.000000, -67.000000)" fill="#32315C">
            <g id="SEARCH" transform="translate(19.000000, 43.000000)">
                <path d="M576,38 C576,45.732 569.732,52 562,52 C554.268,52 548,45.732 548,38 C548,30.26806 554.268,24 562,24 C569.732,24 576,30.26806 576,38 L576,38 Z M558.06066,31.93946 C557.47486,31.35352 556.52514,31.35352 555.93934,31.93946 C555.35358,32.5249 555.35358,33.4751 555.93934,34.06054 L559.87866,38 L555.93934,41.93946 C555.35358,42.5249 555.35358,43.4751 555.93934,44.0606 C556.52514,44.6464 557.47486,44.6464 558.06066,44.0606 L562,40.1211 L565.93934,44.0606 C566.52514,44.6464 567.47486,44.6464 568.0606,44.0606 C568.6464,43.4751 568.6464,42.5249 568.0606,41.93946 L564.12134,38 L568.0606,34.06054 C568.6464,33.4751 568.6464,32.5249 568.0606,31.93946 C567.47486,31.35352 566.52514,31.35352 565.93934,31.93946 L562,35.8789 L558.06066,31.93946 L558.06066,31.93946 Z" id="Clear"></path>
            </g>
        </g>
    </g>
</svg>